<?xml version="1.0" encoding="UTF-8" standalone="no"?>
<!-- Generator: Adobe Illustrator 19.0.0, SVG Export Plug-In . SVG Version: 6.00 Build 0)  -->

<svg
   version="1.1"
   id="Layer_1"
   x="0px"
   y="0px"
   viewBox="0 0 456.86898 642.67968"
   xml:space="preserve"
   sodipodi:docname="logo.svg"
   width="456.86899"
   height="642.67969"
   inkscape:version="1.3 (0e150ed6c4, 2023-07-21)"
   inkscape:export-filename="logo.png"
   inkscape:export-xdpi="96"
   inkscape:export-ydpi="96"
   xmlns:inkscape="http://www.inkscape.org/namespaces/inkscape"
   xmlns:sodipodi="http://sodipodi.sourceforge.net/DTD/sodipodi-0.dtd"
   xmlns="http://www.w3.org/2000/svg"
   xmlns:svg="http://www.w3.org/2000/svg"><defs
   id="defs85"><rect
     x="92.289734"
     y="524.85583"
     width="473.78531"
     height="263.0079"
     id="rect1706" /></defs><sodipodi:namedview
   id="namedview83"
   pagecolor="#ffffff"
   bordercolor="#999999"
   borderopacity="1"
   inkscape:showpageshadow="0"
   inkscape:pageopacity="0"
   inkscape:pagecheckerboard="0"
   inkscape:deskcolor="#d1d1d1"
   showgrid="false"
   inkscape:zoom="1.0631536"
   inkscape:cx="-19.752555"
   inkscape:cy="388.93721"
   inkscape:window-width="1536"
   inkscape:window-height="1205"
   inkscape:window-x="498"
   inkscape:window-y="50"
   inkscape:window-maximized="0"
   inkscape:current-layer="Layer_1" />&#10;<path
   style="fill:#91adb5"
   d="M 236.505,78.533 V 11.445 c 0,-4.45 -3.616,-8.066 -8.074,-8.066 -4.45,0 -8.066,3.616 -8.066,8.066 V 86.11 c 0,4.443 3.616,8.058 8.066,8.058 0.504,0 1.008,-0.039 1.489,-0.142 17.298,0.788 31.145,15.061 31.145,32.555 0,17.975 -14.635,32.626 -32.634,32.626 -17.983,0 -32.634,-14.643 -32.634,-32.626 h -16.148 c 0,26.892 21.898,48.766 48.774,48.766 26.9,0 48.774,-21.874 48.774,-48.766 0.008,-24.126 -17.645,-44.181 -40.692,-48.048 z"
   id="path2" />&#10;<g
   id="g10"
   transform="translate(-13.064)">&#10;	<path
   style="fill:#a8c6cc"
   d="m 241.495,77.588 c 0.504,0 1.008,-0.055 1.489,-0.15 2.276,0.102 4.466,0.449 6.585,0.985 V 61.944 11.445 c 0,-4.45 -3.616,-8.066 -8.074,-8.066 -4.45,0 -8.066,3.616 -8.066,8.066 v 58.077 c -0.008,4.442 3.615,8.066 8.066,8.066 z"
   id="path4" />&#10;	<path
   style="fill:#a8c6cc"
   d="m 289.512,118.17 c -3.45,-19.81 -18.96,-35.501 -38.66,-39.353 13.43,4.041 23.268,16.447 23.268,31.185 0,2.851 -0.41,5.624 -1.118,8.271 0.709,2.67 1.118,5.435 1.118,8.318 0,14.769 -9.901,27.278 -23.418,31.264 19.843,-3.822 35.423,-19.678 38.81,-39.685 z"
   id="path6" />&#10;	<path
   style="fill:#a8c6cc"
   d="m 208.861,126.582 h -13.17 c 5.79,15.919 19.614,28.01 36.588,31.264 -13.517,-3.986 -23.418,-16.495 -23.418,-31.264 z"
   id="path8" />&#10;</g>&#10;<path
   style="fill:#608387"
   d="m 259.032,23.544 c 0,2.977 -2.41,5.388 -5.372,5.388 h -50.452 c -2.985,0 -5.38,-2.41 -5.38,-5.388 V 5.38 c 0,-2.977 2.395,-5.38 5.38,-5.38 h 50.452 c 2.962,0 5.372,2.402 5.372,5.38 z"
   id="path12" />&#10;<path
   id="SVGCleanerId_0"
   style="fill:#91adb5"
   d="m 76.642,325.49 c -2.93,0 -5.845,-1.126 -8.082,-3.356 -4.466,-4.466 -4.466,-11.697 0,-16.171 l 151.78,-151.78 c 4.466,-4.458 11.705,-4.458 16.171,0 l 151.78,151.78 c 4.466,4.466 4.466,11.697 0,16.171 -4.466,4.458 -11.697,4.458 -16.163,0 L 228.431,178.436 84.724,322.135 c -2.229,2.237 -5.159,3.355 -8.082,3.355 z" />&#10;<path
   style="fill:#75b1e1;fill-opacity:1"
   d="m 456.861,468.102 c 0,8.223 -6.664,14.895 -14.895,14.895 H 14.903 C 6.672,482.997 0,476.325 0,468.102 V 305.451 c 0,-8.231 6.672,-14.903 14.903,-14.903 h 427.071 c 8.231,0 14.895,6.672 14.895,14.903 v 162.651 z"
   id="path15" />&#10;<g
   id="g18"
   transform="translate(-13.064)">&#10;	<path
   id="SVGCleanerId_0_1_"
   style="fill:#91adb5"
   d="m 89.706,325.49 c -2.93,0 -5.845,-1.126 -8.082,-3.356 -4.466,-4.466 -4.466,-11.697 0,-16.171 l 151.78,-151.78 c 4.466,-4.458 11.705,-4.458 16.171,0 l 151.78,151.78 c 4.466,4.466 4.466,11.697 0,16.171 -4.466,4.458 -11.697,4.458 -16.163,0 L 241.495,178.436 97.788,322.135 c -2.229,2.237 -5.159,3.355 -8.082,3.355 z" />&#10;</g>&#10;<path
   style="fill:#a8c6cc"
   d="M 84.441,321.843 236.229,170.055 c 4.466,-4.45 11.666,-4.45 16.132,-0.016 l -15.848,-15.856 c -4.466,-4.458 -11.705,-4.458 -16.171,0 L 68.561,305.971 c -4.466,4.466 -4.466,11.697 0,16.171 2.237,2.229 5.152,3.356 8.082,3.356 2.592,0 5.12,-1.032 7.231,-2.788 0.228,-0.276 0.314,-0.623 0.567,-0.867 z"
   id="path20" />&#10;<path
   style="fill:#75b1e1;fill-opacity:1"
   d="M 456.861,468.102 V 305.451 c 0,-8.231 -6.664,-14.903 -14.895,-14.903 H 300.694 c -8.231,0 -14.895,6.672 -14.895,14.903 v 162.643 c 0,8.223 6.664,14.895 14.895,14.895 h 141.28 c 8.224,0 14.887,-6.664 14.887,-14.887 z"
   id="path22" />&#10;<g
   id="g44"
   transform="translate(-13.064)">&#10;	<path
   style="fill:#148de0"
   d="m 313.758,290.556 c -8.231,0 -14.895,6.672 -14.895,14.903 v 162.643 c 0,8.223 6.664,14.895 14.895,14.895 h 141.28 c 8.231,0 14.895,-6.672 14.895,-14.895"
   id="path24" />&#10;	<path
   style="fill:#148de0"
   d="m 49.573,443.928 c 0,2.119 -1.701,3.812 -3.812,3.812 v 0 c -2.103,0 -3.812,-1.701 -3.812,-3.812 v -114.31 c 0,-2.103 1.709,-3.812 3.812,-3.812 v 0 c 2.111,0 3.812,1.717 3.812,3.812 z"
   id="path26" />&#10;	<path
   style="fill:#148de0"
   d="m 77.536,443.928 c 0,2.119 -1.709,3.812 -3.812,3.812 v 0 c -2.111,0 -3.812,-1.701 -3.812,-3.812 v -114.31 c 0,-2.103 1.701,-3.812 3.812,-3.812 v 0 c 2.103,0 3.812,1.717 3.812,3.812 z"
   id="path28" />&#10;	<path
   style="fill:#148de0"
   d="m 105.468,443.928 c 0,2.119 -1.717,3.812 -3.812,3.812 v 0 c -2.111,0 -3.812,-1.701 -3.812,-3.812 v -114.31 c 0,-2.103 1.701,-3.812 3.812,-3.812 v 0 c 2.095,0 3.812,1.717 3.812,3.812 z"
   id="path30" />&#10;	<path
   style="fill:#148de0"
   d="m 133.423,443.928 c 0,2.119 -1.709,3.812 -3.805,3.812 v 0 c -2.119,0 -3.812,-1.701 -3.812,-3.812 v -114.31 c 0,-2.103 1.694,-3.812 3.812,-3.812 v 0 c 2.095,0 3.805,1.717 3.805,3.812 z"
   id="path32" />&#10;	<path
   style="fill:#148de0"
   d="m 161.363,443.928 c 0,2.119 -1.701,3.812 -3.812,3.812 v 0 c -2.103,0 -3.812,-1.701 -3.812,-3.812 v -114.31 c 0,-2.103 1.709,-3.812 3.812,-3.812 v 0 c 2.111,0 3.812,1.717 3.812,3.812 z"
   id="path34" />&#10;	<path
   style="fill:#148de0"
   d="m 189.302,443.928 c 0,2.119 -1.694,3.812 -3.805,3.812 v 0 c -2.103,0 -3.812,-1.701 -3.812,-3.812 v -114.31 c 0,-2.103 1.709,-3.812 3.812,-3.812 v 0 c 2.119,0 3.805,1.717 3.805,3.812 z"
   id="path36" />&#10;	<path
   style="fill:#148de0"
   d="m 217.257,443.928 c 0,2.119 -1.717,3.812 -3.812,3.812 v 0 c -2.119,0 -3.812,-1.701 -3.812,-3.812 v -114.31 c 0,-2.103 1.694,-3.812 3.812,-3.812 v 0 c 2.095,0 3.812,1.717 3.812,3.812 z"
   id="path38" />&#10;	<path
   style="fill:#148de0"
   d="m 245.205,443.928 c 0,2.119 -1.701,3.812 -3.812,3.812 v 0 c -2.103,0 -3.805,-1.701 -3.805,-3.812 v -114.31 c 0,-2.103 1.701,-3.812 3.805,-3.812 v 0 c 2.111,0 3.812,1.717 3.812,3.812 z"
   id="path40" />&#10;	<path
   style="fill:#148de0"
   d="m 273.152,443.928 c 0,2.119 -1.701,3.812 -3.812,3.812 v 0 c -2.103,0 -3.812,-1.701 -3.812,-3.812 v -114.31 c 0,-2.103 1.709,-3.812 3.812,-3.812 v 0 c 2.111,0 3.812,1.717 3.812,3.812 z"
   id="path42" />&#10;</g>&#10;&#10;&#10;&#10;<g
   id="g52"
   transform="translate(-13.064)">&#10;</g>&#10;<g
   id="g54"
   transform="translate(-13.064)">&#10;</g>&#10;<g
   id="g56"
   transform="translate(-13.064)">&#10;</g>&#10;<g
   id="g58"
   transform="translate(-13.064)">&#10;</g>&#10;<g
   id="g60"
   transform="translate(-13.064)">&#10;</g>&#10;<g
   id="g62"
   transform="translate(-13.064)">&#10;</g>&#10;<g
   id="g64"
   transform="translate(-13.064)">&#10;</g>&#10;<g
   id="g66"
   transform="translate(-13.064)">&#10;</g>&#10;<g
   id="g68"
   transform="translate(-13.064)">&#10;</g>&#10;<g
   id="g70"
   transform="translate(-13.064)">&#10;</g>&#10;<g
   id="g72"
   transform="translate(-13.064)">&#10;</g>&#10;<g
   id="g74"
   transform="translate(-13.064)">&#10;</g>&#10;<g
   id="g76"
   transform="translate(-13.064)">&#10;</g>&#10;<g
   id="g78"
   transform="translate(-13.064)">&#10;</g>&#10;<g
   id="g80"
   transform="translate(-13.064)">&#10;</g>&#10;<text
   xml:space="preserve"
   id="text1704"
   style="font-size:186.667px;font-family:'Seven Segment';-inkscape-font-specification:'Seven Segment';white-space:pre;shape-inside:url(#rect1706);display:inline;fill:#040403;stroke:#000000"
   transform="translate(-28.961541,-55.306309)"><tspan
     x="92.289062"
     y="694.69915"
     id="tspan2"><tspan
       style="font-family:sans-serif;-inkscape-font-specification:sans-serif;fill:#75b1e1"
       id="tspan1">ZSU</tspan></tspan></text></svg>
